<?xml version="1.0" encoding="utf-8"?>
<!-- Generator: Adobe Illustrator 16.2.0, SVG Export Plug-In . SVG Version: 6.00 Build 0)  -->
<!DOCTYPE svg PUBLIC "-//W3C//DTD SVG 1.1//EN" "http://www.w3.org/Graphics/SVG/1.1/DTD/svg11.dtd">
<svg version="1.1" id="Ebene_1" xmlns="http://www.w3.org/2000/svg" xmlns:xlink="http://www.w3.org/1999/xlink" x="0px" y="0px"
	 width="100px" height="100px" viewBox="0 0 100 100" enable-background="new 0 0 100 100" xml:space="preserve">
<circle fill="#B2B2B2" cx="50" cy="50" r="50"/>
<g>
	<path fill="#B2B2B2" d="M94.477,69.807c0,6.387-8.926,11.563-19.936,11.563s-19.936-5.178-19.936-11.563"/>
	<rect x="54.607" y="66.883" fill="#B2B2B2" width="39.869" height="3.588"/>
	<ellipse cx="74.542" cy="67.548" rx="19.935" ry="11.562"/>
</g>
<g>
	<path fill="#B2B2B2" d="M93.938,65.766c0,6.387-8.926,11.563-19.936,11.563s-19.936-5.176-19.936-11.563"/>
	<rect x="54.068" y="62.842" fill="#B2B2B2" width="39.869" height="3.588"/>
	<ellipse cx="74.002" cy="63.507" rx="19.936" ry="11.562"/>
</g>
<g>
	<path fill="#B2B2B2" d="M95,63.107c0,6.387-8.925,11.563-19.936,11.563c-11.01,0-19.935-5.176-19.935-11.563"/>
	<rect x="55.131" y="60.184" fill="#B2B2B2" width="39.869" height="3.588"/>
	<ellipse cx="75.064" cy="60.849" rx="19.936" ry="11.562"/>
</g>
<g>
	<path fill="#B2B2B2" d="M92.919,60.146c0,6.385-8.925,11.562-19.935,11.562S53.05,66.531,53.05,60.146"/>
	<rect x="53.05" y="57.223" fill="#B2B2B2" width="39.869" height="3.588"/>
	<ellipse cx="72.984" cy="57.887" rx="19.935" ry="11.562"/>
</g>
<g>
	<path fill="#B2B2B2" d="M92.255,57.355c0,6.386-8.925,11.562-19.935,11.562s-19.936-5.176-19.936-11.562"/>
	<rect x="52.385" y="54.432" fill="#B2B2B2" width="39.869" height="3.588"/>
	<ellipse cx="72.32" cy="55.096" rx="19.935" ry="11.562"/>
</g>
<g>
	<path fill="#B2B2B2" d="M93.318,54.697c0,6.386-8.926,11.563-19.936,11.563s-19.935-5.178-19.935-11.563"/>
	<rect x="53.449" y="51.773" fill="#B2B2B2" width="39.869" height="3.588"/>
	<ellipse cx="73.383" cy="52.438" rx="19.936" ry="11.562"/>
</g>
<g>
	<circle cx="33" cy="53.5" r="27.5"/>
	<polygon fill="#B2B2B2" points="33.447,31.543 28.153,47.803 11.137,47.803 25.002,58.012 19.582,73.768 33.32,64.063 
		46.681,74.271 41.261,57.887 55.504,48.055 38.866,48.055 	"/>
	<circle cx="33.32" cy="55.176" r="7.625"/>
</g>
<g>
	<path fill="#B2B2B2" d="M92.602,50.557c0,6.387-8.926,11.563-19.936,11.563S52.73,56.941,52.73,50.557"/>
	<rect x="52.732" y="47.633" fill="#B2B2B2" width="39.869" height="3.588"/>
	<ellipse cx="72.667" cy="48.298" rx="19.935" ry="11.562"/>
</g>
<g>
	<path fill="#B2B2B2" d="M91.938,47.766c0,6.386-8.926,11.562-19.936,11.562s-19.936-5.176-19.936-11.562"/>
	<rect x="52.068" y="44.842" fill="#B2B2B2" width="39.869" height="3.588"/>
	<ellipse cx="72.002" cy="45.507" rx="19.936" ry="11.562"/>
</g>
<g>
	<path fill="#B2B2B2" d="M93,45.108c0,6.386-8.925,11.562-19.936,11.562c-11.01,0-19.935-5.176-19.935-11.562"/>
	<rect x="53.131" y="42.184" fill="#B2B2B2" width="39.869" height="3.588"/>
	<ellipse cx="73.064" cy="42.849" rx="19.936" ry="11.562"/>
</g>
<g>
	<path fill="#B2B2B2" d="M90.919,42.146c0,6.386-8.925,11.562-19.935,11.562S51.05,48.531,51.05,42.146"/>
	<rect x="51.05" y="39.222" fill="#B2B2B2" width="39.869" height="3.588"/>
	<ellipse cx="70.984" cy="39.887" rx="19.935" ry="11.562"/>
</g>
<g>
	<path fill="#B2B2B2" d="M90.255,39.355c0,6.386-8.925,11.562-19.935,11.562s-19.936-5.176-19.936-11.562"/>
	<rect x="50.385" y="36.431" fill="#B2B2B2" width="39.869" height="3.588"/>
	<ellipse cx="70.32" cy="37.096" rx="19.935" ry="11.562"/>
</g>
<g>
	<path fill="#B2B2B2" d="M91.318,36.697c0,6.386-8.926,11.562-19.936,11.562s-19.935-5.177-19.935-11.562"/>
	<rect x="51.449" y="33.773" fill="#B2B2B2" width="39.869" height="3.588"/>
	<ellipse cx="71.383" cy="34.438" rx="19.936" ry="11.562"/>
</g>
<g>
	<path fill="#B2B2B2" d="M72.055,40.115h-2.49v-3.931h-6.504v-0.717h6.504v-1.58l-0.698-0.433h-5.808v-0.707H67.7l-6.195-3.817
		h2.979l6.326,4.007l6.324-4.007h2.982l-6.197,3.817h4.641v0.707h-5.807l-0.701,0.433v1.58h6.508v0.717h-6.508v3.931H72.055z"/>
</g>
</svg>
