<?xml version="1.0" encoding="utf-8"?>
<!-- Generator: Adobe Illustrator 16.2.0, SVG Export Plug-In . SVG Version: 6.00 Build 0)  -->
<!DOCTYPE svg PUBLIC "-//W3C//DTD SVG 1.1//EN" "http://www.w3.org/Graphics/SVG/1.1/DTD/svg11.dtd">
<svg version="1.1" id="Ebene_1" xmlns="http://www.w3.org/2000/svg" xmlns:xlink="http://www.w3.org/1999/xlink" x="0px" y="0px"
	 width="100px" height="100px" viewBox="0 0 100 100" enable-background="new 0 0 100 100" xml:space="preserve">
<circle fill="#B2B2B2" cx="50" cy="50" r="50"/>
<g>
	<path fill="#B2B2B2" d="M49.31,69.807c0,6.387-8.926,11.563-19.936,11.563S9.438,76.191,9.438,69.807"/>
	<rect x="9.44" y="66.883" fill="#B2B2B2" width="39.869" height="3.588"/>
	<ellipse cx="29.375" cy="67.548" rx="19.935" ry="11.562"/>
</g>
<g>
	<path fill="#B2B2B2" d="M48.771,65.766c0,6.387-8.926,11.563-19.936,11.563S8.899,72.152,8.899,65.766"/>
	<rect x="8.901" y="62.842" fill="#B2B2B2" width="39.869" height="3.588"/>
	<ellipse cx="28.835" cy="63.507" rx="19.936" ry="11.562"/>
</g>
<g>
	<path fill="#B2B2B2" d="M49.833,63.107c0,6.387-8.925,11.563-19.936,11.563c-11.01,0-19.936-5.176-19.936-11.563"/>
	<rect x="9.964" y="60.184" fill="#B2B2B2" width="39.869" height="3.588"/>
	<ellipse cx="29.897" cy="60.849" rx="19.936" ry="11.562"/>
</g>
<g>
	<path fill="#B2B2B2" d="M47.752,60.146c0,6.385-8.925,11.562-19.935,11.562S7.883,66.531,7.883,60.146"/>
	<rect x="7.883" y="57.223" fill="#B2B2B2" width="39.869" height="3.588"/>
	<ellipse cx="27.817" cy="57.887" rx="19.935" ry="11.562"/>
</g>
<g>
	<path fill="#B2B2B2" d="M47.088,57.355c0,6.386-8.925,11.562-19.935,11.562S7.217,63.741,7.217,57.355"/>
	<rect x="7.218" y="54.432" fill="#B2B2B2" width="39.869" height="3.588"/>
	<ellipse cx="27.153" cy="55.096" rx="19.935" ry="11.562"/>
</g>
<g>
	<path fill="#B2B2B2" d="M48.151,54.697c0,6.386-8.926,11.563-19.937,11.563c-11.01,0-19.935-5.178-19.935-11.563"/>
	<rect x="8.282" y="51.773" fill="#B2B2B2" width="39.869" height="3.588"/>
	<ellipse cx="28.216" cy="52.438" rx="19.936" ry="11.562"/>
</g>
<g>
	<path fill="#B2B2B2" d="M47.435,50.557c0,6.387-8.926,11.563-19.936,11.563S7.563,56.941,7.563,50.557"/>
	<rect x="7.565" y="47.633" fill="#B2B2B2" width="39.869" height="3.588"/>
	<ellipse cx="27.5" cy="48.298" rx="19.935" ry="11.562"/>
</g>
<g>
	<path fill="#B2B2B2" d="M46.771,47.766c0,6.386-8.926,11.562-19.936,11.562S6.899,54.152,6.899,47.766"/>
	<rect x="6.901" y="44.842" fill="#B2B2B2" width="39.869" height="3.588"/>
	<ellipse cx="26.835" cy="45.507" rx="19.936" ry="11.562"/>
</g>
<g>
	<path fill="#B2B2B2" d="M47.833,45.108c0,6.386-8.925,11.562-19.936,11.562c-11.01,0-19.936-5.176-19.936-11.562"/>
	<rect x="7.964" y="42.184" fill="#B2B2B2" width="39.869" height="3.588"/>
	<ellipse cx="27.897" cy="42.849" rx="19.936" ry="11.562"/>
</g>
<g>
	<path fill="#B2B2B2" d="M45.752,42.146c0,6.386-8.925,11.562-19.935,11.562S5.883,48.531,5.883,42.146"/>
	<rect x="5.883" y="39.222" fill="#B2B2B2" width="39.869" height="3.588"/>
	<ellipse cx="25.817" cy="39.887" rx="19.935" ry="11.562"/>
</g>
<g>
	<path fill="#B2B2B2" d="M45.088,39.355c0,6.386-8.925,11.562-19.935,11.562S5.217,45.741,5.217,39.355"/>
	<rect x="5.218" y="36.431" fill="#B2B2B2" width="39.869" height="3.588"/>
	<ellipse cx="25.153" cy="37.096" rx="19.935" ry="11.562"/>
</g>
<g>
	<path fill="#B2B2B2" d="M46.151,36.697c0,6.386-8.926,11.562-19.937,11.562c-11.01,0-19.935-5.177-19.935-11.562"/>
	<rect x="6.282" y="33.773" fill="#B2B2B2" width="39.869" height="3.588"/>
	<ellipse cx="26.216" cy="34.438" rx="19.936" ry="11.562"/>
</g>
<g>
	<path fill="#B2B2B2" d="M26.888,40.115h-2.49v-3.931h-6.504v-0.717h6.504v-1.58L23.7,33.454h-5.809v-0.707h4.642l-6.195-3.817
		h2.979l6.326,4.007l6.323-4.007h2.982l-6.197,3.817h4.642v0.707h-5.808l-0.701,0.433v1.58h6.509v0.717h-6.509v3.931H26.888z"/>
</g>
<g>
	<path fill="#B2B2B2" d="M92.932,67.847c0,6.386-8.926,11.563-19.936,11.563s-19.936-5.178-19.936-11.563"/>
	<rect x="53.063" y="64.923" fill="#B2B2B2" width="39.869" height="3.588"/>
	<ellipse cx="72.996" cy="65.587" rx="19.936" ry="11.562"/>
</g>
<g>
	<path fill="#B2B2B2" d="M92.215,63.706c0,6.387-8.926,11.563-19.936,11.563s-19.936-5.179-19.936-11.563"/>
	<rect x="52.346" y="60.782" fill="#B2B2B2" width="39.869" height="3.588"/>
	<ellipse cx="72.281" cy="61.447" rx="19.934" ry="11.562"/>
</g>
<g>
	<path fill="#B2B2B2" d="M91.551,60.916c0,6.386-8.926,11.562-19.936,11.562S51.68,67.302,51.68,60.916"/>
	<rect x="51.682" y="57.991" fill="#B2B2B2" width="39.869" height="3.589"/>
	<ellipse cx="71.615" cy="58.656" rx="19.936" ry="11.562"/>
</g>
<g>
	<path fill="#B2B2B2" d="M92.613,58.258c0,6.386-8.924,11.562-19.936,11.562c-11.01,0-19.936-5.176-19.936-11.562"/>
	<rect x="52.744" y="55.334" fill="#B2B2B2" width="39.869" height="3.588"/>
	<ellipse cx="72.678" cy="55.999" rx="19.936" ry="11.562"/>
</g>
<g>
	<path fill="#B2B2B2" d="M90.533,55.295c0,6.387-8.926,11.563-19.936,11.563S50.664,61.68,50.664,55.295"/>
	<rect x="50.664" y="52.371" fill="#B2B2B2" width="39.869" height="3.588"/>
	<ellipse cx="70.598" cy="53.037" rx="19.936" ry="11.562"/>
</g>
<g>
	<path fill="#B2B2B2" d="M89.869,52.504c0,6.387-8.926,11.563-19.936,11.563s-19.936-5.176-19.936-11.563"/>
	<rect x="49.998" y="49.581" fill="#B2B2B2" width="39.869" height="3.587"/>
	<ellipse cx="69.934" cy="50.246" rx="19.936" ry="11.562"/>
</g>
<g>
	<path fill="#B2B2B2" d="M90.932,49.846c0,6.386-8.926,11.562-19.936,11.562s-19.936-5.177-19.936-11.562"/>
	<rect x="51.063" y="46.922" fill="#B2B2B2" width="39.869" height="3.587"/>
	<ellipse cx="70.996" cy="47.587" rx="19.936" ry="11.562"/>
</g>
<g>
	<path fill="#B2B2B2" d="M71.668,53.264h-2.49v-3.93h-6.504v-0.717h6.504v-1.58l-0.697-0.433h-5.809v-0.707h4.643l-6.195-3.817
		h2.979l6.326,4.007l6.324-4.007h2.982l-6.197,3.817h4.641v0.707h-5.807l-0.701,0.433v1.58h6.508v0.717h-6.508v3.93H71.668z"/>
</g>
<rect x="83.743" y="29.836" transform="matrix(-0.7971 -0.6038 0.6038 -0.7971 132.0905 110.8177)" width="1.839" height="6.764"/>
<rect x="79.123" y="28.262" transform="matrix(-0.9945 -0.1046 0.1046 -0.9945 156.3358 71.4871)" width="1.839" height="6.763"/>
</svg>
