<?xml version="1.0" encoding="utf-8"?>
<!-- Generator: Adobe Illustrator 17.0.0, SVG Export Plug-In . SVG Version: 6.00 Build 0)  -->
<!DOCTYPE svg PUBLIC "-//W3C//DTD SVG 1.1//EN" "http://www.w3.org/Graphics/SVG/1.1/DTD/svg11.dtd">
<svg version="1.1" id="Ebene_1" xmlns="http://www.w3.org/2000/svg" xmlns:xlink="http://www.w3.org/1999/xlink" x="0px" y="0px"
	 width="100px" height="100px" viewBox="0 0 100 100" enable-background="new 0 0 100 100" xml:space="preserve">
<circle fill="#B2B2B2" cx="50" cy="50" r="50"/>
<g>
	<path fill="#B2B2B2" d="M47.882,69.893c0,6.386-8.925,11.562-19.935,11.562S8.013,76.278,8.013,69.893"/>
	<rect x="8.013" y="66.969" fill="#B2B2B2" width="39.869" height="3.588"/>
	<ellipse fill="#FFFFFF" cx="27.947" cy="67.634" rx="19.935" ry="11.562"/>
</g>
<g>
	<path fill="#B2B2B2" d="M47.218,67.102c0,6.386-8.925,11.562-19.935,11.562S7.348,73.487,7.348,67.102"/>
	<rect x="7.348" y="64.178" fill="#B2B2B2" width="39.869" height="3.588"/>
	<ellipse fill="#FFFFFF" cx="27.283" cy="64.843" rx="19.935" ry="11.562"/>
</g>
<g>
	<path fill="#B2B2B2" d="M48.281,64.444c0,6.386-8.925,11.562-19.935,11.562S8.412,70.829,8.412,64.444"/>
	<rect x="8.412" y="61.52" fill="#B2B2B2" width="39.869" height="3.588"/>
	<ellipse fill="#FFFFFF" cx="28.346" cy="62.185" rx="19.935" ry="11.562"/>
</g>
<g>
	<path fill="#B2B2B2" d="M46.2,61.482c0,6.386-8.925,11.562-19.935,11.562S6.331,67.867,6.331,61.482"/>
	<rect x="6.331" y="58.558" fill="#B2B2B2" width="39.869" height="3.588"/>
	<ellipse fill="#FFFFFF" cx="26.265" cy="59.223" rx="19.935" ry="11.562"/>
</g>
<g>
	<path fill="#B2B2B2" d="M45.535,58.691c0,6.386-8.925,11.562-19.935,11.562S5.666,65.077,5.666,58.691"/>
	<rect x="5.666" y="55.767" fill="#B2B2B2" width="39.869" height="3.588"/>
	<ellipse fill="#FFFFFF" cx="25.601" cy="56.432" rx="19.935" ry="11.562"/>
</g>
<g>
	<path fill="#B2B2B2" d="M46.599,56.033c0,6.386-8.925,11.562-19.935,11.562S6.729,62.419,6.729,56.033"/>
	<rect x="6.729" y="53.109" fill="#B2B2B2" width="39.869" height="3.588"/>
	<ellipse fill="#FFFFFF" cx="26.664" cy="53.774" rx="19.935" ry="11.562"/>
</g>
<g>
	<path fill="#B2B2B2" d="M92.101,69.893c0,6.386-8.925,11.562-19.935,11.562s-19.935-5.177-19.935-11.562"/>
	<rect x="52.232" y="66.969" fill="#B2B2B2" width="39.869" height="3.588"/>
	<ellipse fill="#FFFFFF" cx="72.167" cy="67.634" rx="19.935" ry="11.562"/>
</g>
<g>
	<path fill="#B2B2B2" d="M91.437,67.102c0,6.386-8.925,11.562-19.935,11.562s-19.935-5.176-19.935-11.562"/>
	<rect x="51.568" y="64.178" fill="#B2B2B2" width="39.869" height="3.588"/>
	<ellipse fill="#FFFFFF" cx="71.502" cy="64.843" rx="19.935" ry="11.562"/>
</g>
<g>
	<path fill="#B2B2B2" d="M92.5,64.444c0,6.386-8.925,11.562-19.935,11.562s-19.935-5.176-19.935-11.562"/>
	<rect x="52.631" y="61.52" fill="#B2B2B2" width="39.869" height="3.588"/>
	<ellipse fill="#FFFFFF" cx="72.565" cy="62.185" rx="19.935" ry="11.562"/>
</g>
<g>
	<path fill="#B2B2B2" d="M90.419,61.482c0,6.386-8.925,11.562-19.935,11.562S50.55,67.867,50.55,61.482"/>
	<rect x="50.55" y="58.558" fill="#B2B2B2" width="39.869" height="3.588"/>
	<ellipse fill="#FFFFFF" cx="70.484" cy="59.223" rx="19.935" ry="11.562"/>
</g>
<g>
	<path fill="#B2B2B2" d="M89.755,58.691c0,6.386-8.925,11.562-19.935,11.562s-19.935-5.176-19.935-11.562"/>
	<rect x="49.885" y="55.767" fill="#B2B2B2" width="39.869" height="3.588"/>
	<ellipse fill="#FFFFFF" cx="69.82" cy="56.432" rx="19.935" ry="11.562"/>
</g>
<g>
	<path fill="#B2B2B2" d="M90.818,56.033c0,6.386-8.925,11.562-19.935,11.562s-19.935-5.177-19.935-11.562"/>
	<rect x="50.949" y="53.109" fill="#B2B2B2" width="39.869" height="3.588"/>
	<ellipse fill="#FFFFFF" cx="70.883" cy="53.774" rx="19.935" ry="11.562"/>
</g>
<g>
	<path fill="#B2B2B2" d="M47.882,53.226c0,6.386-8.925,11.562-19.935,11.562S8.013,59.611,8.013,53.226"/>
	<rect x="8.013" y="50.302" fill="#B2B2B2" width="39.869" height="3.588"/>
	<ellipse fill="#FFFFFF" cx="27.947" cy="50.967" rx="19.935" ry="11.562"/>
</g>
<g>
	<path fill="#B2B2B2" d="M47.218,50.435c0,6.386-8.925,11.562-19.935,11.562S7.348,56.821,7.348,50.435"/>
	<rect x="7.348" y="47.512" fill="#B2B2B2" width="39.869" height="3.588"/>
	<ellipse fill="#FFFFFF" cx="27.283" cy="48.176" rx="19.935" ry="11.562"/>
</g>
<g>
	<path fill="#B2B2B2" d="M48.281,47.777c0,6.386-8.925,11.562-19.935,11.562S8.412,54.163,8.412,47.777"/>
	<rect x="8.412" y="44.854" fill="#B2B2B2" width="39.869" height="3.588"/>
	<ellipse fill="#FFFFFF" cx="28.346" cy="45.518" rx="19.935" ry="11.562"/>
</g>
<g>
	<path fill="#B2B2B2" d="M46.2,44.815c0,6.386-8.925,11.562-19.935,11.562S6.331,51.201,6.331,44.815"/>
	<rect x="6.331" y="41.892" fill="#B2B2B2" width="39.869" height="3.588"/>
	<ellipse fill="#FFFFFF" cx="26.265" cy="42.556" rx="19.935" ry="11.562"/>
</g>
<g>
	<path fill="#B2B2B2" d="M45.535,42.024c0,6.386-8.925,11.562-19.935,11.562S5.666,48.41,5.666,42.024"/>
	<rect x="5.666" y="39.101" fill="#B2B2B2" width="39.869" height="3.588"/>
	<ellipse fill="#FFFFFF" cx="25.601" cy="39.765" rx="19.935" ry="11.562"/>
</g>
<g>
	<path fill="#B2B2B2" d="M51.599,38.366c0,6.386-8.925,11.562-19.935,11.562s-19.935-5.177-19.935-11.562"/>
	<rect x="11.729" y="35.443" fill="#B2B2B2" width="39.869" height="3.588"/>
	<ellipse fill="#FFFFFF" cx="31.664" cy="36.107" rx="19.935" ry="11.562"/>
</g>
<g>
	<path fill="#B2B2B2" d="M27.554,43.118h-2.489v-3.931h-6.505V38.47h6.505v-1.58l-0.699-0.433h-5.807V35.75H23.2l-6.195-3.817h2.98
		l6.326,4.007l6.324-4.007h2.982L29.42,35.75h4.641v0.707h-5.807l-0.701,0.433v1.58h6.507v0.717h-6.507V43.118z"/>
</g>
<g>
	<path fill="#B2B2B2" d="M71.554,59.451h-2.489V55.52h-6.505v-0.717h6.505v-1.58l-0.699-0.433h-5.807v-0.707H67.2l-6.195-3.817h2.98
		l6.326,4.007l6.324-4.007h2.982l-6.197,3.817h4.641v0.707h-5.807l-0.701,0.433v1.58h6.507v0.717h-6.507V59.451z"/>
</g>
<rect x="88.387" y="37.066" transform="matrix(0.6367 0.7711 -0.7711 0.6367 63.6326 -54.17)" fill="#FFFFFF" width="1.84" height="6.764"/>
<rect x="84.253" y="34.47" transform="matrix(0.9438 0.3305 -0.3305 0.9438 17.2954 -26.0219)" fill="#FFFFFF" width="1.839" height="6.764"/>
</svg>
