<?xml version="1.0" encoding="utf-8"?>
<!-- Generator: Adobe Illustrator 17.0.0, SVG Export Plug-In . SVG Version: 6.00 Build 0)  -->
<!DOCTYPE svg PUBLIC "-//W3C//DTD SVG 1.1//EN" "http://www.w3.org/Graphics/SVG/1.1/DTD/svg11.dtd">
<svg version="1.1" id="Ebene_1" xmlns="http://www.w3.org/2000/svg" xmlns:xlink="http://www.w3.org/1999/xlink" x="0px" y="0px"
	 width="100px" height="100px" viewBox="0 0 100 100" enable-background="new 0 0 100 100" xml:space="preserve">
<circle fill="#B2B2B2" cx="50" cy="50" r="50"/>
<polygon fill="#FFFFFF" points="80.651,58.027 76.06,34.43 44.043,34.43 44.043,23.755 36.177,23.755 36.177,34.43 30.426,34.43 
	25.834,58.027 31.612,58.027 31.612,77.13 74.874,77.13 74.874,58.027 "/>
<path fill="#B2B2B2" d="M44.604,70.388h-7.866v-9.832h7.866V70.388z M39.548,67.579h2.247v-4.214h-2.247V67.579z"/>
<path fill="#FFFFFF" d="M81.314,12.643c0,0-3.651,3.961-1.283,4.618S81.314,12.643,81.314,12.643z"/>
<path fill="#FFFFFF" d="M19.319,34.143c0,0-3.651,3.961-1.283,4.618S19.319,34.143,19.319,34.143z"/>
<path fill="#FFFFFF" d="M77.472,25.721c0,0-3.651,3.961-1.283,4.618C78.558,30.997,77.472,25.721,77.472,25.721z"/>
<path fill="#FFFFFF" d="M85.617,41.447c0,0-3.651,3.961-1.283,4.618S85.617,41.447,85.617,41.447z"/>
<path fill="#FFFFFF" d="M87.672,27.269c0,0-3.651,3.961-1.283,4.618C88.758,32.546,87.672,27.269,87.672,27.269z"/>
<path fill="#FFFFFF" d="M69.501,17.025c0,0-3.651,3.961-1.283,4.618S69.501,17.025,69.501,17.025z"/>
<path fill="#FFFFFF" d="M63.972,7.905c0,0-3.651,3.961-1.283,4.618C65.057,13.181,63.972,7.905,63.972,7.905z"/>
<path fill="#FFFFFF" d="M54.509,15.358c0,0-3.651,3.961-1.283,4.618C55.595,20.634,54.509,15.358,54.509,15.358z"/>
<path fill="#FFFFFF" d="M48.137,4.271c0,0-3.651,3.961-1.283,4.618C49.223,9.547,48.137,4.271,48.137,4.271z"/>
<path fill="#FFFFFF" d="M28.561,18.467c0,0-3.651,3.961-1.283,4.618S28.561,18.467,28.561,18.467z"/>
<path fill="#FFFFFF" d="M13.561,21.967c0,0-3.651,3.961-1.283,4.618S13.561,21.967,13.561,21.967z"/>
<path fill="#FFFFFF" d="M40.58,11.238c0,0-3.651,3.961-1.283,4.618C41.666,16.515,40.58,11.238,40.58,11.238z"/>
<path fill="#FFFFFF" d="M33.808,2c0,0-3.651,3.961-1.283,4.618S33.808,2,33.808,2z"/>
<path fill="#FFFFFF" d="M59.58,25.022c0,0-3.651,3.961-1.283,4.618C60.666,30.298,59.58,25.022,59.58,25.022z"/>
<path fill="#FFFFFF" d="M72.356,88.047c-21.579-10.299-38.774-0.158-38.945-0.054l-1.168-1.92c0.74-0.45,18.366-10.896,41.08-0.054
	L72.356,88.047z"/>
<path fill="#FFFFFF" d="M66.997,91.414c-15.69-7.489-28.103-0.13-28.227-0.054l-1.169-1.92c0.547-0.332,13.588-8.06,30.363-0.054
	L66.997,91.414z"/>
<path fill="#FFFFFF" d="M60.589,94.532c-8.54-4.076-15.136-0.219-15.413-0.053l-1.166-1.921c0.317-0.192,7.873-4.67,17.547-0.054
	L60.589,94.532z"/>
<path fill="#FFFFFF" d="M19.365,74.276c-0.878,0.179-1.802,0.116-2.661-0.205c-0.461,0.331-0.983,0.567-1.544,0.693l-0.495-2.192
	c0.396-0.09,0.753-0.295,1.031-0.594l0.616-0.664l0.779,0.461c1.038,0.614,2.385,0.415,3.202-0.474
	c0.353-0.384,0.578-0.859,0.652-1.375l0.115-0.808l0.804-0.14c0.561-0.103,1.066-0.371,1.45-0.789
	c0.96-1.044,0.892-2.676-0.153-3.636c-0.142-0.131-0.302-0.245-0.489-0.35l-0.71-0.397l0.156-0.799
	c0.173-0.888-0.118-1.781-0.78-2.389c-0.609-0.56-1.427-0.788-2.245-0.625l-0.888,0.176l-0.361-0.83
	c-0.113-0.261-0.275-0.489-0.482-0.679l1.521-1.654c0.228,0.21,0.431,0.441,0.606,0.692c1.235-0.027,2.451,0.421,3.37,1.266
	c1.049,0.965,1.603,2.309,1.553,3.706c0.094,0.074,0.183,0.15,0.27,0.229c1.957,1.799,2.085,4.855,0.286,6.812
	C24.423,70.304,23.752,70.742,23,71c-0.21,0.675-0.567,1.294-1.052,1.822C21.246,73.586,20.334,74.078,19.365,74.276z"/>
<path fill="#FFFFFF" d="M19.435,64.736c-0.387-0.054-9.487-1.399-10.68-8.721l1.39-0.204c0.987,6.051,9.281,7.271,9.364,7.282
	L19.435,64.736z"/>
<path fill="#FFFFFF" d="M17.253,67.135c-0.387-0.054-9.487-1.399-10.68-8.721l1.39-0.204c0.987,6.051,9.281,7.271,9.364,7.282
	L17.253,67.135z"/>
<path fill="#FFFFFF" d="M14.885,69.299c-0.387-0.054-9.487-1.399-10.68-8.721l1.39-0.204c0.984,6.038,9.281,7.271,9.365,7.282
	L14.885,69.299z"/>
<polygon fill="#B2B2B2" points="71.305,72.536 70.091,68.664 65.956,68.628 64.523,64.056 66.667,63.383 67.612,66.395 
	71.746,66.431 72.91,70.143 75.663,69.908 75.854,72.147 "/>
</svg>
