<?xml version="1.0" encoding="utf-8"?>
<!-- Generator: Adobe Illustrator 17.0.0, SVG Export Plug-In . SVG Version: 6.00 Build 0)  -->
<!DOCTYPE svg PUBLIC "-//W3C//DTD SVG 1.1//EN" "http://www.w3.org/Graphics/SVG/1.1/DTD/svg11.dtd">
<svg version="1.1" id="Ebene_1" xmlns="http://www.w3.org/2000/svg" xmlns:xlink="http://www.w3.org/1999/xlink" x="0px" y="0px"
	 width="100px" height="100px" viewBox="0 0 100 100" enable-background="new 0 0 100 100" xml:space="preserve">
<circle fill="#B2B2B2" cx="50" cy="50" r="50"/>
<g>
	<circle fill="#FFFFFF" cx="17.051" cy="29.486" r="0.774"/>
	<circle fill="#FFFFFF" cx="76.087" cy="19.202" r="0.774"/>
	<circle fill="#FFFFFF" cx="53.032" cy="31.69" r="0.774"/>
	<circle fill="#FFFFFF" cx="58.936" cy="48.541" r="0.774"/>
	<circle fill="#FFFFFF" cx="73.052" cy="29.117" r="0.774"/>
	<circle fill="#FFFFFF" cx="25.05" cy="40.912" r="0.774"/>
	<circle fill="#FFFFFF" cx="33.822" cy="29.117" r="0.774"/>
	<circle fill="#FFFFFF" cx="41.329" cy="13.893" r="0.774"/>
	<circle fill="#FFFFFF" cx="60.09" cy="14.274" r="0.774"/>
	<circle fill="#FFFFFF" cx="12.821" cy="49.968" r="0.774"/>
	<circle fill="#FFFFFF" cx="31.923" cy="59.544" r="0.774"/>
	<circle fill="#FFFFFF" cx="92.084" cy="42.828" r="0.774"/>
	<circle fill="#FFFFFF" cx="12.469" cy="63.396" r="0.774"/>
	<circle fill="#FFFFFF" cx="39.142" cy="45.482" r="0.774"/>
	<circle fill="#FFFFFF" cx="50.618" cy="89.758" r="0.774"/>
	<circle fill="#FFFFFF" cx="69.624" cy="93.104" r="0.774"/>
	<circle fill="#FFFFFF" cx="36.488" cy="93.104" r="0.774"/>
</g>
<g>
	<polygon fill="none" stroke="#FFFFFF" stroke-width="0.5" stroke-linecap="round" stroke-linejoin="round" points="26.606,23.075 
		27.881,17.55 31.104,22.222 36.529,20.564 34.091,25.688 38.244,29.559 32.586,30.009 31.309,35.539 28.088,30.866 22.662,32.523 
		25.101,27.4 20.952,23.528 	"/>
	<g>
		<polyline fill="none" stroke="#FFFFFF" stroke-width="0.5" stroke-linecap="round" stroke-linejoin="round" points="
			18.123,20.254 23.781,19.799 25.058,14.275 		"/>
		
			<line fill="none" stroke="#FFFFFF" stroke-width="0.5" stroke-linecap="round" stroke-linejoin="round" x1="15.366" y1="10.046" x2="29.597" y2="26.544"/>
		<polyline fill="none" stroke="#FFFFFF" stroke-width="0.5" stroke-linecap="round" stroke-linejoin="round" points="
			17.752,17.137 21.239,16.856 22.028,13.448 		"/>
		<polyline fill="none" stroke="#FFFFFF" stroke-width="0.5" stroke-linecap="round" stroke-linejoin="round" points="
			15.176,12.407 17.8,12.869 17.727,10.206 		"/>
	</g>
	<g>
		<polyline fill="none" stroke="#FFFFFF" stroke-width="0.5" stroke-linecap="round" stroke-linejoin="round" points="
			18.415,33.336 20.845,28.209 16.698,24.338 		"/>
		
			<line fill="none" stroke="#FFFFFF" stroke-width="0.5" stroke-linecap="round" stroke-linejoin="round" x1="8.194" y1="30.618" x2="29.597" y2="26.544"/>
		<polyline fill="none" stroke="#FFFFFF" stroke-width="0.5" stroke-linecap="round" stroke-linejoin="round" points="
			15.526,32.095 17.029,28.936 14.472,26.552 		"/>
		<polyline fill="none" stroke="#FFFFFF" stroke-width="0.5" stroke-linecap="round" stroke-linejoin="round" points="10.14,31.961 
			11.856,29.922 9.512,28.653 		"/>
	</g>
	<g>
		<polyline fill="none" stroke="#FFFFFF" stroke-width="0.5" stroke-linecap="round" stroke-linejoin="round" points="
			29.883,39.623 26.662,34.95 21.241,36.609 		"/>
		
			<line fill="none" stroke="#FFFFFF" stroke-width="0.5" stroke-linecap="round" stroke-linejoin="round" x1="22.426" y1="47.115" x2="29.597" y2="26.544"/>
		<polyline fill="none" stroke="#FFFFFF" stroke-width="0.5" stroke-linecap="round" stroke-linejoin="round" points="
			27.371,41.505 25.385,38.623 22.043,39.646 		"/>
		<polyline fill="none" stroke="#FFFFFF" stroke-width="0.5" stroke-linecap="round" stroke-linejoin="round" points="
			24.561,46.099 23.652,43.596 21.38,44.993 		"/>
	</g>
	<g>
		<polyline fill="none" stroke="#FFFFFF" stroke-width="0.5" stroke-linecap="round" stroke-linejoin="round" points="
			41.063,32.833 35.413,33.289 34.136,38.813 		"/>
		
			<line fill="none" stroke="#FFFFFF" stroke-width="0.5" stroke-linecap="round" stroke-linejoin="round" x1="43.825" y1="43.039" x2="29.597" y2="26.544"/>
		<polyline fill="none" stroke="#FFFFFF" stroke-width="0.5" stroke-linecap="round" stroke-linejoin="round" points="
			41.437,35.952 37.951,36.232 37.165,39.639 		"/>
		<polyline fill="none" stroke="#FFFFFF" stroke-width="0.5" stroke-linecap="round" stroke-linejoin="round" points="
			44.015,40.681 41.393,40.217 41.465,42.881 		"/>
	</g>
	<g>
		<polyline fill="none" stroke="#FFFFFF" stroke-width="0.5" stroke-linecap="round" stroke-linejoin="round" points="
			40.779,19.755 38.345,24.878 42.491,28.747 		"/>
		
			<line fill="none" stroke="#FFFFFF" stroke-width="0.5" stroke-linecap="round" stroke-linejoin="round" x1="50.997" y1="22.466" x2="29.597" y2="26.544"/>
		<polyline fill="none" stroke="#FFFFFF" stroke-width="0.5" stroke-linecap="round" stroke-linejoin="round" points="
			43.664,20.992 42.163,24.149 44.721,26.537 		"/>
		<polyline fill="none" stroke="#FFFFFF" stroke-width="0.5" stroke-linecap="round" stroke-linejoin="round" points="
			49.047,21.124 47.335,23.167 49.681,24.435 		"/>
	</g>
	<g>
		<polyline fill="none" stroke="#FFFFFF" stroke-width="0.5" stroke-linecap="round" stroke-linejoin="round" points="
			29.308,13.463 32.529,18.135 37.951,16.478 		"/>
		
			<line fill="none" stroke="#FFFFFF" stroke-width="0.5" stroke-linecap="round" stroke-linejoin="round" x1="36.766" y1="5.973" x2="29.597" y2="26.544"/>
		<polyline fill="none" stroke="#FFFFFF" stroke-width="0.5" stroke-linecap="round" stroke-linejoin="round" points="
			31.822,11.585 33.809,14.465 37.151,13.439 		"/>
		<polyline fill="none" stroke="#FFFFFF" stroke-width="0.5" stroke-linecap="round" stroke-linejoin="round" points="34.628,6.984 
			35.541,9.49 37.813,8.095 		"/>
	</g>
</g>
<path fill="#FFFFFF" d="M88.713,68.144l2.688,6.451h2.296V59.844h-2.77v-0.962h-0.441l-0.295-0.769h0.266v-6.605h-0.364V40.732
	v-0.034c-0.005-0.128,0.028-0.308,0.054-0.344c0,0,0.013-0.007,0.049-0.007h1.982v-1.539h-1.982c-0.378,0-0.706,0.166-0.948,0.481
	c-0.402,0.525-0.412,1.261-0.406,1.46v10.758h-0.677v6.605h0.162l-0.295,0.769h-0.545v0.962h-0.199l-0.782-2.181h-3.122
	l-3.099-23.526l0.457,2.146l0.555-0.18l-0.56-2.618h0.185v-3.207h-9.438v-0.467h-0.447v-2.034v-0.202c0-1.377-0.8-2.493-1.786-2.493
	c-0.986,0-1.788,1.116-1.788,2.493v0.202v2.034h-0.446v0.467H56.169v3.165l-0.781,1.911v-0.201h-0.627v5.067h0.627v-3.667
	l1.225-2.996l-0.114-0.071h1.229l-2.696,20.46h-1.704l-0.671-2.746h-3.121v1.299l-6.602-0.094l-2.285,1.101h-9.661v0.441H27.74
	l-0.003-0.11l-1.006-0.495l-0.961,5.776l-0.326,1.375h-0.223v3.906l0.733,1.815l-1.581,4.345h-1.545l-0.719-1.375h-0.732
	l-4.943-6.986L14.19,62.91l0.687,2.696l-3.205,12.541l-1.345,1.196c0.145-0.477,0.232-0.994,0.244-1.539
	c1.108-0.682,1.88-2.199,1.88-3.966c0-1.015-0.257-1.948-0.683-2.689c0.427-0.74,0.683-1.673,0.683-2.688
	c0-2.404-1.427-4.352-3.187-4.352c-0.261,0-0.513,0.047-0.755,0.128c0.002-0.043,0.005-0.085,0.005-0.128
	c0-1.414-0.84-2.56-1.875-2.56c-0.615,0-1.159,0.407-1.501,1.03c-0.932-0.485-2.151-0.511-3.399-0.015
	c1.151,6.098,3.405,11.805,6.548,16.907h1.897l-0.005,0.004l0.046,0.44l10.327-2.539l1.877-0.11l5.996-5.006l3.022-7.957h1.982v0.44
	h3.957c-0.744,1.483-1.172,3.151-1.172,4.923c0,6.078,4.927,11.006,11.006,11.006c6.079,0,11.006-4.928,11.006-11.006
	c0-4.758-3.024-8.798-7.249-10.335h5.091l3.812,15.264l5.473-0.058l1.676-6.982c-0.133,0.684-0.207,1.389-0.207,2.111
	c0,6.078,4.926,11.006,11.006,11.006c6.079,0,11.006-4.928,11.006-11.006C88.83,69.148,88.782,68.643,88.713,68.144z M23.253,73.636
	l-1.105,0.502l0.189-1.108l0.401-0.99h1.095L23.253,73.636z M30.712,58.289l-1.922,2.2h-0.732v-1.155l-0.229-1.1l-0.068-3.245h3.226
	v0.44h5.664L30.712,58.289z M33.428,63.258h-0.663l0.663-0.435V63.258z M49.535,57.663h-1.851l-0.434,0.998
	c-0.011,0-0.021-0.002-0.032-0.002c-3.488,0-6.591,1.627-8.607,4.159h-5.176l9.864-6.48h6.237V57.663z M58.22,53.901l-0.626-9.407
	l1.459-10.689h8.824v20.096H58.22z M67.183,66.9l1.977-8.236l6.273,0.264C71.402,59.821,68.214,62.923,67.183,66.9z M79.62,53.045
	h-8.963V33.464h7.365l2.501,16.931L79.62,53.045z M81.132,59.167l3.908,0.164l1.53,3.672C85.209,61.218,83.323,59.856,81.132,59.167
	z"/>
</svg>
